<svg version="1.0" xmlns="http://www.w3.org/2000/svg"
 width="100.000000pt" height="100.000000pt" viewBox="0 0 100.000000 100.000000"
 preserveAspectRatio="xMidYMid meet"
>
  <g transform="translate(0.000000,100.000000) scale(0.100000,-0.100000)" fill="#000000" stroke="none">
    <path d="M146 814 c-14 -13 -16 -56 -16 -314 0 -258 2 -301 16 -314 13 -14 60
    -16 354 -16 294 0 341 2 354 16 14 13 16 56 16 314 0 258 -2 301 -16 314 -13
    14 -60 16 -354 16 -294 0 -341 -2 -354 -16z m692 -316 l2 -298 -340 0 -340 0
    0 293 c0 162 3 297 7 300 4 4 155 6 337 5 l331 -3 3 -297z"/>
    <path d="M280 468 c-18 -40 -35 -79 -37 -85 -8 -21 26 -14 37 7 8 14 21 20 45
    20 24 0 39 -6 47 -20 13 -21 38 -27 38 -11 0 25 -70 161 -83 161 -8 0 -29 -32
    -47 -72z m70 -25 c0 -7 -11 -13 -25 -13 -29 0 -29 0 -13 35 11 25 13 26 25 9
    7 -10 13 -24 13 -31z"/>
    <path d="M447 533 c-4 -3 -7 -42 -7 -85 l0 -78 55 0 c60 0 89 18 101 64 8 32
    -14 77 -46 93 -27 13 -92 17 -103 6z m95 -40 c38 -34 15 -93 -37 -93 l-35 0 0
    55 c0 53 1 55 27 55 14 0 35 -7 45 -17z"/>
    <path d="M646 527 c-12 -9 -17 -23 -14 -42 2 -25 10 -32 46 -45 64 -22 49 -59
    -17 -40 -20 5 -33 5 -37 -2 -10 -16 17 -28 63 -28 45 0 73 19 73 50 0 22 -12
    31 -60 45 -51 15 -46 40 8 39 27 0 42 4 42 12 0 25 -73 33 -104 11z"/>
  </g>
</svg>
